<svg width="843" height="232" viewBox="0 0 843 232" fill="none" xmlns="http://www.w3.org/2000/svg">
<g clip-path="url(#clip0_273_2)">
<path d="M7.968 107.2C7.904 106.88 7.648 106.304 7.2 105.472C6.752 104.64 6.272 103.808 5.76 102.976C5.312 102.208 4.96 101.696 4.704 101.44C15.392 98.24 23.136 93.376 27.936 86.848C32.8 80.256 35.328 71.68 35.52 61.12H6.432V55.264H44.736V20.32H51.264V55.264H89.76V61.12H60.096V95.68C60.096 96.704 60.352 97.472 60.864 97.984C61.376 98.432 62.4 98.656 63.936 98.656H77.28C79.2 98.656 80.768 98.304 81.984 97.6C83.2 96.832 84.16 95.488 84.864 93.568C85.568 91.584 86.048 88.8 86.304 85.216C87.008 85.664 87.936 86.112 89.088 86.56C90.304 86.944 91.328 87.296 92.16 87.616C91.712 92.224 90.912 95.776 89.76 98.272C88.608 100.704 87.136 102.368 85.344 103.264C83.552 104.224 81.344 104.704 78.72 104.704H62.304C59.168 104.704 56.992 104.192 55.776 103.168C54.56 102.144 53.952 100.448 53.952 98.08V61.12H41.952C41.696 72.64 38.88 82.24 33.504 89.92C28.128 97.6 19.616 103.36 7.968 107.2ZM65.568 50.368C65.248 50.112 64.704 49.792 63.936 49.408C63.168 48.96 62.4 48.544 61.632 48.16C60.864 47.712 60.288 47.424 59.904 47.296C61.248 45.568 62.72 43.488 64.32 41.056C65.92 38.56 67.456 35.968 68.928 33.28C70.464 30.592 71.712 28.128 72.672 25.888L78.816 28.576C77.728 30.88 76.384 33.408 74.784 36.16C73.248 38.848 71.648 41.44 69.984 43.936C68.384 46.432 66.912 48.576 65.568 50.368ZM28.224 50.944C27.456 48.96 26.336 46.624 24.864 43.936C23.392 41.184 21.824 38.496 20.16 35.872C18.56 33.184 17.12 30.976 15.84 29.248L21.696 26.464C23.04 28.256 24.512 30.432 26.112 32.992C27.712 35.552 29.248 38.144 30.72 40.768C32.192 43.392 33.376 45.728 34.272 47.776C33.888 47.904 33.28 48.192 32.448 48.64C31.616 49.088 30.784 49.536 29.952 49.984C29.12 50.432 28.544 50.752 28.224 50.944ZM110.112 100.576C109.92 100.384 109.472 100.064 108.768 99.616C108.064 99.104 107.36 98.624 106.656 98.176C105.952 97.728 105.44 97.472 105.12 97.408C107.744 94.528 110.368 90.912 112.992 86.56C115.616 82.144 118.112 77.28 120.48 71.968C122.848 66.656 124.96 61.248 126.816 55.744C123.168 56.192 119.616 56.672 116.16 57.184C112.768 57.696 110.048 58.176 108 58.624C108 58.304 107.872 57.728 107.616 56.896C107.424 56.064 107.2 55.232 106.944 54.4C106.752 53.504 106.592 52.928 106.464 52.672C108.896 52.48 112.128 52.16 116.16 51.712C120.256 51.2 124.384 50.72 128.544 50.272C129.824 45.92 130.88 41.728 131.712 37.696C132.544 33.6 133.056 29.792 133.248 26.272L139.296 27.232C139.04 30.56 138.528 34.144 137.76 37.984C136.992 41.76 136 45.664 134.784 49.696C136.448 49.568 138.016 49.472 139.488 49.408C141.024 49.28 142.336 49.216 143.424 49.216C146.56 49.216 149.152 49.952 151.2 51.424C153.248 52.896 154.528 55.552 155.04 59.392C155.616 63.168 155.168 68.608 153.696 75.712C152.096 83.584 150.08 89.408 147.648 93.184C145.28 96.96 141.76 98.848 137.088 98.848C135.296 98.848 133.568 98.656 131.904 98.272C130.304 97.824 128.672 97.024 127.008 95.872C127.136 94.976 127.232 93.92 127.296 92.704C127.36 91.488 127.328 90.496 127.2 89.728C130.208 91.904 133.312 92.992 136.512 92.992C138.496 92.992 140.128 92.416 141.408 91.264C142.752 90.048 143.904 88.096 144.864 85.408C145.888 82.72 146.912 79.072 147.936 74.464C148.896 70.048 149.408 66.528 149.472 63.904C149.6 61.216 149.344 59.2 148.704 57.856C148.128 56.512 147.264 55.648 146.112 55.264C145.024 54.816 143.808 54.592 142.464 54.592C141.248 54.592 139.84 54.656 138.24 54.784C136.64 54.848 134.912 54.944 133.056 55.072C131.136 61.024 128.896 66.912 126.336 72.736C123.776 78.56 121.088 83.904 118.272 88.768C115.52 93.568 112.8 97.504 110.112 100.576ZM183.264 74.656C182.176 72.864 180.704 70.88 178.848 68.704C177.056 66.528 175.104 64.384 172.992 62.272C170.944 60.096 168.896 58.112 166.848 56.32C164.8 54.528 162.976 53.12 161.376 52.096L165.696 48.064C167.424 49.216 169.344 50.72 171.456 52.576C173.632 54.432 175.776 56.448 177.888 58.624C180 60.736 181.952 62.848 183.744 64.96C185.536 67.008 186.944 68.8 187.968 70.336L183.264 74.656ZM186.528 39.52C185.312 38.56 183.808 37.536 182.016 36.448C180.224 35.36 178.368 34.368 176.448 33.472C174.592 32.512 172.96 31.776 171.552 31.264L173.856 27.712C175.2 28.16 176.832 28.896 178.752 29.92C180.736 30.944 182.656 32 184.512 33.088C186.432 34.176 187.936 35.136 189.024 35.968L186.528 39.52ZM181.152 48.352C180 47.328 178.528 46.24 176.736 45.088C174.944 43.936 173.12 42.88 171.264 41.92C169.472 40.896 167.872 40.096 166.464 39.52L168.864 36.064C170.144 36.576 171.744 37.376 173.664 38.464C175.584 39.552 177.472 40.672 179.328 41.824C181.248 42.976 182.72 43.968 183.744 44.8L181.152 48.352ZM202.656 104.128V98.464H268.416V82.72H206.496V77.152H268.416V61.696H203.136V56.128H236.64V20.992H242.976V56.128H274.752V104.128H202.656ZM257.568 52.288C257.312 52.096 256.8 51.776 256.032 51.328C255.328 50.88 254.592 50.432 253.824 49.984C253.12 49.536 252.608 49.28 252.288 49.216C254.016 47.424 255.808 45.152 257.664 42.4C259.584 39.648 261.312 36.832 262.848 33.952C264.448 31.008 265.664 28.384 266.496 26.08L272.352 28.576C271.328 31.072 269.984 33.824 268.32 36.832C266.656 39.776 264.896 42.624 263.04 45.376C261.184 48.064 259.36 50.368 257.568 52.288ZM220.032 52.576C219.008 50.336 217.728 47.904 216.192 45.28C214.72 42.592 213.152 40 211.488 37.504C209.824 35.008 208.16 32.864 206.496 31.072L211.776 27.808C213.44 29.664 215.136 31.84 216.864 34.336C218.592 36.832 220.224 39.392 221.76 42.016C223.36 44.64 224.704 47.104 225.792 49.408C225.472 49.472 224.896 49.728 224.064 50.176C223.296 50.624 222.496 51.104 221.664 51.616C220.896 52.064 220.352 52.384 220.032 52.576ZM304.512 102.4C303.744 101.888 302.752 101.376 301.536 100.864C300.32 100.416 299.296 100.096 298.464 99.904C300.064 97.344 301.728 94.112 303.456 90.208C305.248 86.304 307.04 81.984 308.832 77.248C310.624 72.512 312.352 67.584 314.016 62.464C315.744 57.344 317.28 52.352 318.624 47.488C314.656 47.936 310.848 48.224 307.2 48.352C303.552 48.48 300.512 48.48 298.08 48.352L297.888 42.112C300.704 42.432 304.096 42.56 308.064 42.496C312.032 42.368 316.064 42.08 320.16 41.632C321.056 38.048 321.792 34.688 322.368 31.552C323.008 28.352 323.456 25.536 323.712 23.104L330.24 23.968C329.92 26.208 329.44 28.768 328.8 31.648C328.16 34.528 327.424 37.568 326.592 40.768C329.792 40.256 332.8 39.68 335.616 39.04C338.496 38.336 340.928 37.6 342.912 36.832L344.256 42.688C342.208 43.456 339.456 44.192 336 44.896C332.608 45.6 328.928 46.208 324.96 46.72C323.552 51.776 321.984 56.96 320.256 62.272C318.592 67.584 316.832 72.768 314.976 77.824C313.184 82.88 311.392 87.52 309.6 91.744C307.808 95.968 306.112 99.52 304.512 102.4ZM370.176 97.888C363.328 98.912 357.024 99.168 351.264 98.656C345.568 98.144 340.704 96.96 336.672 95.104C332.64 93.184 329.632 90.656 327.648 87.52L331.68 83.488C334.496 87.584 339.36 90.368 346.272 91.84C353.248 93.248 361.536 93.088 371.136 91.36C370.816 92.192 370.56 93.28 370.368 94.624C370.176 95.968 370.112 97.056 370.176 97.888ZM367.584 63.232C364.64 62.208 361.28 61.44 357.504 60.928C353.728 60.416 349.984 60.096 346.272 59.968C342.56 59.84 339.296 59.904 336.48 60.16L337.248 53.92C339.36 53.792 341.824 53.792 344.64 53.92C347.52 53.984 350.496 54.176 353.568 54.496C356.64 54.752 359.584 55.104 362.4 55.552C365.28 55.936 367.712 56.416 369.696 56.992L367.584 63.232ZM426.72 96.544C426.464 95.712 426.112 94.784 425.664 93.76C425.216 92.736 424.736 91.872 424.224 91.168C430.304 90.464 435.616 89.408 440.16 88C444.704 86.528 448.224 84.576 450.72 82.144C453.216 79.712 454.4 76.736 454.272 73.216C454.016 65.728 448.352 62.208 437.28 62.656C435.232 62.72 432.736 63.008 429.792 63.52C426.848 63.968 423.776 64.544 420.576 65.248C417.44 65.952 414.464 66.688 411.648 67.456C408.832 68.224 406.528 68.96 404.736 69.664C404.672 69.536 404.448 69.056 404.064 68.224C403.744 67.328 403.392 66.464 403.008 65.632C402.624 64.736 402.368 64.224 402.24 64.096C404.096 63.648 406.528 63.104 409.536 62.464C412.544 61.76 415.744 61.056 419.136 60.352C422.528 59.648 425.824 59.04 429.024 58.528C432.224 58.016 434.912 57.728 437.088 57.664C444.512 57.344 450.08 58.528 453.792 61.216C457.568 63.904 459.552 67.84 459.744 73.024C459.936 77.568 458.656 81.408 455.904 84.544C453.152 87.68 449.248 90.208 444.192 92.128C439.2 94.048 433.376 95.52 426.72 96.544ZM550.656 101.632C544.576 100.928 539.136 99.072 534.336 96.064C529.6 92.992 525.888 89.12 523.2 84.448C520.512 79.712 519.168 74.496 519.168 68.8C519.168 65.536 519.776 62.08 520.992 58.432C522.208 54.72 524.064 51.136 526.56 47.68C529.056 44.16 532.256 41.12 536.16 38.56C532.064 39.264 527.84 40.032 523.488 40.864C519.136 41.632 514.944 42.4 510.912 43.168C506.88 43.872 503.264 44.544 500.064 45.184C496.864 45.824 494.336 46.368 492.48 46.816L490.848 40C492.96 39.808 495.808 39.456 499.392 38.944C502.976 38.432 506.976 37.824 511.392 37.12C515.808 36.416 520.352 35.68 525.024 34.912C529.696 34.08 534.24 33.248 538.656 32.416C543.072 31.584 547.072 30.816 550.656 30.112C554.24 29.344 557.088 28.704 559.2 28.192L560.832 34.624C560 34.688 558.944 34.816 557.664 35.008C556.448 35.2 555.04 35.456 553.44 35.776C549.6 36.352 545.984 37.664 542.592 39.712C539.2 41.76 536.224 44.32 533.664 47.392C531.104 50.4 529.088 53.76 527.616 57.472C526.208 61.12 525.504 64.896 525.504 68.8C525.504 74.048 526.816 78.56 529.44 82.336C532.064 86.048 535.552 88.992 539.904 91.168C544.256 93.344 549.024 94.752 554.208 95.392C553.504 96.224 552.8 97.248 552.096 98.464C551.392 99.68 550.912 100.736 550.656 101.632ZM44.832 223.2V189.984H9.312V156.288H44.832V135.936H51.168V156.288H86.784V189.984H51.168V223.2H44.832ZM51.168 183.936H80.448V162.144H51.168V183.936ZM15.744 183.936H44.832V162.144H15.744V183.936ZM158.304 213.504C156.768 211.52 154.816 209.344 152.448 206.976C150.144 204.544 147.616 202.112 144.864 199.68C142.176 197.248 139.488 195.008 136.8 192.96C134.112 190.848 131.648 189.12 129.408 187.776L133.44 183.936C135.36 185.152 137.472 186.624 139.776 188.352C142.144 190.016 144.512 191.808 146.88 193.728C149.056 191.552 151.36 188.992 153.792 186.048C156.224 183.04 158.56 179.968 160.8 176.832C163.04 173.632 164.928 170.688 166.464 168C164.48 168.064 162.112 168.128 159.36 168.192C156.672 168.256 153.888 168.32 151.008 168.384C148.192 168.384 145.568 168.416 143.136 168.48C140.768 168.544 138.912 168.576 137.568 168.576C133.792 173.44 129.6 178.112 124.992 182.592C120.384 187.008 115.648 190.816 110.784 194.016C110.592 193.76 110.208 193.312 109.632 192.672C109.056 192.032 108.448 191.392 107.808 190.752C107.232 190.112 106.752 189.696 106.368 189.504C110.272 187.264 114.08 184.512 117.792 181.248C121.568 177.92 125.12 174.336 128.448 170.496C131.776 166.656 134.752 162.72 137.376 158.688C140 154.656 142.112 150.816 143.712 147.168L149.376 149.28C147.456 153.76 144.896 158.304 141.696 162.912C144.192 162.912 147.04 162.88 150.24 162.816C153.44 162.752 156.576 162.688 159.648 162.624C162.784 162.56 165.408 162.496 167.52 162.432C169.696 162.368 170.912 162.304 171.168 162.24L175.008 165.12C173.408 168.576 171.232 172.288 168.48 176.256C165.792 180.224 162.944 184.064 159.936 187.776C156.928 191.488 154.112 194.752 151.488 197.568C153.792 199.552 155.936 201.568 157.92 203.616C159.968 205.6 161.696 207.424 163.104 209.088C162.784 209.28 162.272 209.696 161.568 210.336C160.928 210.912 160.288 211.52 159.648 212.16C159.008 212.736 158.56 213.184 158.304 213.504ZM206.112 216.576C205.92 216.384 205.472 216.064 204.768 215.616C204.064 215.104 203.36 214.624 202.656 214.176C201.952 213.728 201.44 213.472 201.12 213.408C203.744 210.528 206.368 206.912 208.992 202.56C211.616 198.144 214.112 193.28 216.48 187.968C218.848 182.656 220.96 177.248 222.816 171.744C219.168 172.192 215.616 172.672 212.16 173.184C208.768 173.696 206.048 174.176 204 174.624C204 174.304 203.872 173.728 203.616 172.896C203.424 172.064 203.2 171.232 202.944 170.4C202.752 169.504 202.592 168.928 202.464 168.672C204.896 168.48 208.128 168.16 212.16 167.712C216.256 167.2 220.384 166.72 224.544 166.272C225.824 161.92 226.88 157.728 227.712 153.696C228.544 149.6 229.056 145.792 229.248 142.272L235.296 143.232C235.04 146.56 234.528 150.144 233.76 153.984C232.992 157.76 232 161.664 230.784 165.696C232.448 165.568 234.016 165.472 235.488 165.408C237.024 165.28 238.336 165.216 239.424 165.216C242.624 165.216 245.248 165.952 247.296 167.424C249.344 168.896 250.624 171.552 251.136 175.392C251.648 179.168 251.168 184.608 249.696 191.712C248.096 199.584 246.112 205.408 243.744 209.184C241.376 212.96 237.824 214.848 233.088 214.848C231.296 214.848 229.568 214.656 227.904 214.272C226.304 213.824 224.672 213.024 223.008 211.872C223.136 210.976 223.232 209.92 223.296 208.704C223.36 207.488 223.328 206.496 223.2 205.728C226.208 207.904 229.312 208.992 232.512 208.992C234.496 208.992 236.128 208.416 237.408 207.264C238.752 206.048 239.904 204.096 240.864 201.408C241.888 198.72 242.912 195.072 243.936 190.464C244.896 186.048 245.408 182.528 245.472 179.904C245.6 177.216 245.344 175.2 244.704 173.856C244.128 172.512 243.264 171.648 242.112 171.264C241.024 170.816 239.808 170.592 238.464 170.592C237.248 170.592 235.84 170.656 234.24 170.784C232.64 170.848 230.912 170.944 229.056 171.072C227.136 177.024 224.896 182.912 222.336 188.736C219.776 194.56 217.088 199.904 214.272 204.768C211.52 209.568 208.8 213.504 206.112 216.576ZM279.264 190.656C278.176 188.864 276.704 186.88 274.848 184.704C273.056 182.528 271.104 180.384 268.992 178.272C266.944 176.096 264.896 174.112 262.848 172.32C260.8 170.528 258.976 169.12 257.376 168.096L261.696 164.064C263.424 165.216 265.344 166.72 267.456 168.576C269.632 170.432 271.776 172.448 273.888 174.624C276 176.736 277.952 178.848 279.744 180.96C281.536 183.008 282.944 184.8 283.968 186.336L279.264 190.656ZM330.72 212.544C330.464 211.712 330.112 210.784 329.664 209.76C329.216 208.736 328.736 207.872 328.224 207.168C334.304 206.464 339.616 205.408 344.16 204C348.704 202.528 352.224 200.576 354.72 198.144C357.216 195.712 358.4 192.736 358.272 189.216C358.016 181.728 352.352 178.208 341.28 178.656C339.232 178.72 336.736 179.008 333.792 179.52C330.848 179.968 327.776 180.544 324.576 181.248C321.44 181.952 318.464 182.688 315.648 183.456C312.832 184.224 310.528 184.96 308.736 185.664C308.672 185.536 308.448 185.056 308.064 184.224C307.744 183.328 307.392 182.464 307.008 181.632C306.624 180.736 306.368 180.224 306.24 180.096C308.096 179.648 310.528 179.104 313.536 178.464C316.544 177.76 319.744 177.056 323.136 176.352C326.528 175.648 329.824 175.04 333.024 174.528C336.224 174.016 338.912 173.728 341.088 173.664C348.512 173.344 354.08 174.528 357.792 177.216C361.568 179.904 363.552 183.84 363.744 189.024C363.936 193.568 362.656 197.408 359.904 200.544C357.152 203.68 353.248 206.208 348.192 208.128C343.2 210.048 337.376 211.52 330.72 212.544ZM426.048 211.584C419.968 211.584 415.04 210.496 411.264 208.32C407.488 206.08 404.672 202.24 402.816 196.8L408.576 194.208C409.472 197.792 411.36 200.544 414.24 202.464C417.12 204.384 421.056 205.344 426.048 205.344C430.336 205.344 434.592 205.152 438.816 204.768C443.04 204.384 446.976 203.84 450.624 203.136C454.272 202.432 457.28 201.664 459.648 200.832C459.648 201.216 459.68 201.92 459.744 202.944C459.808 203.904 459.904 204.864 460.032 205.824C460.224 206.72 460.352 207.328 460.416 207.648C457.92 208.48 454.816 209.184 451.104 209.76C447.392 210.336 443.36 210.784 439.008 211.104C434.72 211.424 430.4 211.584 426.048 211.584ZM413.568 154.944L413.376 148.608C415.424 149.312 418.08 149.824 421.344 150.144C424.672 150.464 428.192 150.592 431.904 150.528C435.616 150.464 439.136 150.24 442.464 149.856C445.792 149.472 448.48 148.96 450.528 148.32L450.72 154.656C448.672 155.296 446.016 155.808 442.752 156.192C439.488 156.512 436.032 156.704 432.384 156.768C428.736 156.832 425.248 156.736 421.92 156.48C418.592 156.16 415.808 155.648 413.568 154.944ZM518.592 204.672C517.12 205.568 515.552 206.144 513.888 206.4C512.288 206.656 510.688 206.368 509.088 205.536C507.552 204.704 506.08 203.104 504.672 200.736C502.88 197.728 501.248 194.272 499.776 190.368C498.368 186.464 497.152 182.4 496.128 178.176C495.104 173.888 494.336 169.632 493.824 165.408C493.312 161.12 493.088 157.088 493.152 153.312L499.296 153.408C499.168 157.888 499.488 162.752 500.256 168C501.024 173.248 502.176 178.336 503.712 183.264C505.248 188.192 507.072 192.48 509.184 196.128C510.4 198.112 511.616 199.232 512.832 199.488C514.112 199.68 515.328 199.36 516.48 198.528C518.144 197.376 519.904 195.808 521.76 193.824C523.616 191.776 524.96 189.92 525.792 188.256C526.24 189.088 526.816 190.016 527.52 191.04C528.288 192.064 528.992 192.864 529.632 193.44C528.864 194.656 527.84 196 526.56 197.472C525.28 198.944 523.936 200.32 522.528 201.6C521.184 202.88 519.872 203.904 518.592 204.672ZM557.952 187.872C557.376 186.208 556.448 184.096 555.168 181.536C553.952 178.976 552.544 176.288 550.944 173.472C549.408 170.656 547.808 168 546.144 165.504C544.544 162.944 543.104 160.896 541.824 159.36L546.912 156.192C548.256 157.856 549.76 160 551.424 162.624C553.152 165.184 554.848 167.936 556.512 170.88C558.24 173.76 559.744 176.512 561.024 179.136C562.368 181.696 563.36 183.808 564 185.472C562.976 185.664 561.888 185.984 560.736 186.432C559.584 186.88 558.656 187.36 557.952 187.872ZM614.592 204.672C613.12 205.568 611.552 206.144 609.888 206.4C608.288 206.656 606.688 206.368 605.088 205.536C603.552 204.704 602.08 203.104 600.672 200.736C598.88 197.728 597.248 194.272 595.776 190.368C594.368 186.464 593.152 182.4 592.128 178.176C591.104 173.888 590.336 169.632 589.824 165.408C589.312 161.12 589.088 157.088 589.152 153.312L595.296 153.408C595.168 157.888 595.488 162.752 596.256 168C597.024 173.248 598.176 178.336 599.712 183.264C601.248 188.192 603.072 192.48 605.184 196.128C606.4 198.112 607.616 199.232 608.832 199.488C610.112 199.68 611.328 199.36 612.48 198.528C614.144 197.376 615.904 195.808 617.76 193.824C619.616 191.776 620.96 189.92 621.792 188.256C622.24 189.088 622.816 190.016 623.52 191.04C624.288 192.064 624.992 192.864 625.632 193.44C624.864 194.656 623.84 196 622.56 197.472C621.28 198.944 619.936 200.32 618.528 201.6C617.184 202.88 615.872 203.904 614.592 204.672ZM653.952 187.872C653.376 186.208 652.448 184.096 651.168 181.536C649.952 178.976 648.544 176.288 646.944 173.472C645.408 170.656 643.808 168 642.144 165.504C640.544 162.944 639.104 160.896 637.824 159.36L642.912 156.192C644.256 157.856 645.76 160 647.424 162.624C649.152 165.184 650.848 167.936 652.512 170.88C654.24 173.76 655.744 176.512 657.024 179.136C658.368 181.696 659.36 183.808 660 185.472C658.976 185.664 657.888 185.984 656.736 186.432C655.584 186.88 654.656 187.36 653.952 187.872ZM699.168 218.688V187.2C696.544 190.08 693.952 193.024 691.392 196.032C688.832 199.04 686.432 202.048 684.192 205.056L679.296 200.928C680.576 199.648 682.208 197.92 684.192 195.744C686.176 193.504 688.448 191.008 691.008 188.256C693.568 185.44 696.288 182.592 699.168 179.712V164.64C696.032 165.344 692.768 166.016 689.376 166.656C686.048 167.296 683.392 167.776 681.408 168.096L680.256 162.144C681.536 162.016 683.232 161.792 685.344 161.472C687.52 161.152 689.824 160.768 692.256 160.32C694.752 159.872 697.056 159.424 699.168 158.976V138.72H705.024V157.536C705.152 157.472 705.28 157.44 705.408 157.44C705.536 157.376 705.632 157.312 705.696 157.248L709.536 160.032L705.024 169.728V173.952C708.352 170.752 711.712 167.808 715.104 165.12C718.496 162.368 721.76 160.192 724.896 158.592C728.096 156.928 731.008 156.096 733.632 156.096C739.648 156.096 744.16 158.592 747.168 163.584C750.24 168.512 751.776 175.712 751.776 185.184C751.776 191.712 751.04 197.184 749.568 201.6C752 202.752 754.272 204.032 756.384 205.44C758.56 206.784 760.48 208.16 762.144 209.568C761.952 209.824 761.568 210.368 760.992 211.2C760.48 212.032 759.968 212.864 759.456 213.696C759.008 214.464 758.72 215.008 758.592 215.328C756.928 213.664 755.104 212.16 753.12 210.816C751.2 209.408 749.216 208.16 747.168 207.072C745.184 210.528 742.656 213.056 739.584 214.656C736.576 216.192 733.216 216.96 729.504 216.96C725.408 216.96 722.24 215.968 720 213.984C717.824 211.936 716.736 209.536 716.736 206.784C716.736 203.904 718.016 201.504 720.576 199.584C723.136 197.6 726.56 196.608 730.848 196.608C732.896 196.608 735.04 196.864 737.28 197.376C739.584 197.824 741.824 198.464 744 199.296C744.64 197.248 745.088 195.04 745.344 192.672C745.664 190.304 745.824 187.808 745.824 185.184C745.824 180.768 745.44 176.8 744.672 173.28C743.904 169.76 742.624 166.976 740.832 164.928C739.104 162.88 736.672 161.856 733.536 161.856C731.36 161.856 728.736 162.72 725.664 164.448C722.592 166.112 719.296 168.384 715.776 171.264C712.256 174.144 708.672 177.44 705.024 181.152V218.688H699.168ZM729.6 211.296C732.416 211.296 734.816 210.688 736.8 209.472C738.848 208.256 740.48 206.592 741.696 204.48C737.6 202.88 733.856 202.08 730.464 202.08C727.904 202.08 725.888 202.528 724.416 203.424C723.008 204.32 722.304 205.44 722.304 206.784C722.304 208.128 723.008 209.216 724.416 210.048C725.824 210.88 727.552 211.296 729.6 211.296ZM787.584 221.28C785.216 221.28 783.04 220.704 781.056 219.552C779.136 218.4 777.568 216.832 776.352 214.848C775.2 212.864 774.624 210.688 774.624 208.32C774.624 205.952 775.2 203.808 776.352 201.888C777.504 199.904 779.072 198.336 781.056 197.184C783.04 195.968 785.216 195.36 787.584 195.36C789.952 195.36 792.096 195.968 794.016 197.184C796 198.336 797.568 199.904 798.72 201.888C799.872 203.808 800.448 205.952 800.448 208.32C800.448 210.688 799.872 212.864 798.72 214.848C797.568 216.832 796 218.4 794.016 219.552C792.096 220.704 789.952 221.28 787.584 221.28ZM787.584 217.536C790.144 217.536 792.288 216.64 794.016 214.848C795.808 212.992 796.704 210.816 796.704 208.32C796.704 205.824 795.808 203.68 794.016 201.888C792.288 200.032 790.144 199.104 787.584 199.104C785.024 199.104 782.848 200 781.056 201.792C779.264 203.584 778.368 205.76 778.368 208.32C778.368 210.88 779.264 213.056 781.056 214.848C782.848 216.64 785.024 217.536 787.584 217.536Z" fill="black"/>
</g>
<defs>
<clipPath id="clip0_273_2">
<rect width="843" height="232" fill="white"/>
</clipPath>
</defs>
</svg>
